<svg width="298" height="325" viewBox="0 0 298 325" fill="none" xmlns="http://www.w3.org/2000/svg">
<path d="M120.389 91.7363C121.159 74.6255 126.986 58.1274 137.133 44.3283C147.279 30.5291 161.29 20.0487 177.393 14.2123C193.496 8.37593 210.968 7.44572 227.6 11.5393C244.232 15.6329 259.276 24.5665 270.831 37.2103C282.385 49.8541 289.931 65.6402 292.513 82.5725C295.096 99.5047 292.6 116.823 285.34 132.336C278.081 147.85 266.384 160.862 251.729 169.728C237.074 178.594 220.119 182.915 203.008 182.144L205.575 125.122C211.408 125.385 217.187 123.912 222.183 120.89C227.179 117.867 231.166 113.432 233.641 108.143C236.116 102.855 236.967 96.9514 236.086 91.1794C235.206 85.4073 232.634 80.026 228.695 75.7159C224.756 71.4057 219.628 68.3604 213.958 66.9649C208.288 65.5695 202.332 65.8866 196.843 67.8761C191.354 69.8657 186.578 73.4383 183.119 78.1423C179.66 82.8463 177.673 88.4703 177.411 94.3032L120.389 91.7363Z" fill="url(#paint0_linear_442_15436)"/>
<mask id="path-2-inside-1_442_15436" fill="white">
<path d="M176.995 103.196C176.225 120.307 170.398 136.805 160.252 150.604C150.105 164.403 136.094 174.884 119.991 180.72C103.888 186.556 86.4159 187.487 69.7842 183.393C53.1525 179.299 38.1081 170.366 26.5536 157.722C14.9991 145.078 7.45345 129.292 4.87075 112.36C2.28806 95.4275 4.78437 78.1096 12.044 62.5961C19.3036 47.0826 31.0005 34.0702 45.6556 25.2044C60.3106 16.3386 77.2655 12.0176 94.3763 12.7879L91.8094 69.8099C85.9765 69.5473 80.1967 71.0203 75.201 74.0426C70.2053 77.0648 66.2179 81.5006 63.7432 86.789C61.2685 92.0774 60.4175 97.9809 61.2979 103.753C62.1783 109.525 64.7506 114.906 68.6894 119.216C72.6282 123.527 77.7566 126.572 83.4262 127.967C89.0958 129.363 95.0518 129.046 100.541 127.056C106.031 125.067 110.807 121.494 114.266 116.79C117.724 112.086 119.711 106.462 119.973 100.629L176.995 103.196Z"/>
</mask>
<path d="M176.995 103.196C176.225 120.307 170.398 136.805 160.252 150.604C150.105 164.403 136.094 174.884 119.991 180.72C103.888 186.556 86.4159 187.487 69.7842 183.393C53.1525 179.299 38.1081 170.366 26.5536 157.722C14.9991 145.078 7.45345 129.292 4.87075 112.36C2.28806 95.4275 4.78437 78.1096 12.044 62.5961C19.3036 47.0826 31.0005 34.0702 45.6556 25.2044C60.3106 16.3386 77.2655 12.0176 94.3763 12.7879L91.8094 69.8099C85.9765 69.5473 80.1967 71.0203 75.201 74.0426C70.2053 77.0648 66.2179 81.5006 63.7432 86.789C61.2685 92.0774 60.4175 97.9809 61.2979 103.753C62.1783 109.525 64.7506 114.906 68.6894 119.216C72.6282 123.527 77.7566 126.572 83.4262 127.967C89.0958 129.363 95.0518 129.046 100.541 127.056C106.031 125.067 110.807 121.494 114.266 116.79C117.724 112.086 119.711 106.462 119.973 100.629L176.995 103.196Z" stroke="#377AFC" stroke-width="26.6388" mask="url(#path-2-inside-1_442_15436)"/>
<circle cx="189.05" cy="95.9679" r="6.57431" fill="white"/>
<circle cx="206.382" cy="79.8309" r="6.57431" fill="white"/>
<circle cx="222.519" cy="95.9679" r="6.57431" fill="white"/>
<circle cx="206.382" cy="112.105" r="6.57431" fill="white"/>
<rect x="86.576" y="82.5802" width="7.99163" height="34.6304" rx="3.99582" fill="white"/>
<rect x="107.887" y="95.8996" width="7.99163" height="34.6304" rx="3.99582" transform="rotate(90 107.887 95.8996)" fill="white"/>
<path d="M19.0094 298.958C15.9406 298.958 13.156 298.191 10.6555 296.657C8.15502 295.123 6.13757 293.077 4.60318 290.519C3.12562 287.905 2.38683 285.007 2.38683 281.824V254.802C2.38683 251.733 3.12562 248.92 4.60318 246.363C6.13757 243.749 8.15502 241.674 10.6555 240.14C13.2128 238.606 15.9975 237.838 19.0094 237.838C22.135 237.838 24.9481 238.606 27.4486 240.14C30.0059 241.618 32.0234 243.635 33.5009 246.192C34.9785 248.75 35.7173 251.62 35.7173 254.802V258.723C35.7173 258.951 35.5752 259.064 35.2911 259.064H25.7437C25.5164 259.064 25.4027 258.951 25.4027 258.723V255.484C25.4027 253.324 24.7776 251.534 23.5274 250.114C22.334 248.693 20.828 247.983 19.0094 247.983C17.3614 247.983 15.8838 248.664 14.5767 250.028C13.3265 251.392 12.7014 252.984 12.7014 254.802V281.824C12.7014 283.7 13.3265 285.319 14.5767 286.683C15.827 287.99 17.3046 288.644 19.0094 288.644C20.828 288.644 22.334 287.99 23.5274 286.683C24.7776 285.376 25.4027 283.757 25.4027 281.824V277.647H19.4357C19.1515 277.647 19.0094 277.505 19.0094 277.221V267.674C19.0094 267.39 19.1515 267.248 19.4357 267.248H35.3763C35.6036 267.248 35.7173 267.39 35.7173 267.674V281.824C35.7173 285.007 34.9501 287.905 33.4157 290.519C31.9381 293.077 29.9491 295.123 27.4486 296.657C24.9481 298.191 22.135 298.958 19.0094 298.958ZM37.3895 297.68L47.9598 239.117C48.0166 238.89 48.1587 238.776 48.386 238.776H60.7464C60.9737 238.776 61.1158 238.89 61.1726 239.117L71.3167 297.68C71.3735 297.964 71.2598 298.106 70.9757 298.106H61.5136C61.2863 298.106 61.1442 297.964 61.0874 297.68L60.1497 291.457H48.5565L47.6188 297.68C47.562 297.964 47.4199 298.106 47.1926 298.106H37.7305C37.5032 298.106 37.3895 297.964 37.3895 297.68ZM50.2614 282.336H58.4448L54.9498 258.382L54.4383 255.228L54.0974 258.382L50.2614 282.336ZM77.0074 298.106C76.7801 298.106 76.6664 297.964 76.6664 297.68L76.8369 239.117C76.8369 238.89 76.9505 238.776 77.1779 238.776H87.5776C87.805 238.776 88.0039 238.89 88.1744 239.117L95.9316 250.369L103.689 239.117C103.859 238.89 104.058 238.776 104.285 238.776H114.771C114.998 238.776 115.111 238.89 115.111 239.117L115.282 297.68C115.282 297.964 115.168 298.106 114.941 298.106H105.308C105.081 298.106 104.967 297.964 104.967 297.68L104.882 254.205L95.9316 267.162L87.0662 254.205L86.9809 297.68C86.9809 297.964 86.8673 298.106 86.64 298.106H77.0074ZM122.793 298.106C122.565 298.106 122.452 297.964 122.452 297.68L122.537 239.117C122.537 238.89 122.651 238.776 122.878 238.776H150.241C150.469 238.776 150.582 238.918 150.582 239.202V248.75C150.582 248.977 150.469 249.091 150.241 249.091H132.766V262.389H150.241C150.469 262.389 150.582 262.502 150.582 262.73L150.668 272.362C150.668 272.59 150.554 272.703 150.327 272.703H132.766V287.621H150.327C150.554 287.621 150.668 287.763 150.668 288.047V297.765C150.668 297.992 150.554 298.106 150.327 298.106H122.793Z" fill="white"/>
<path d="M158.589 298.106C158.361 298.106 158.248 297.964 158.248 297.68L158.333 239.202C158.333 238.918 158.475 238.776 158.759 238.776H168.221C168.505 238.776 168.647 238.918 168.647 239.202L168.562 287.621H186.122C186.407 287.621 186.549 287.763 186.549 288.047V297.68C186.549 297.964 186.407 298.106 186.122 298.106H158.589ZM192.555 298.106C192.271 298.106 192.129 297.964 192.129 297.68L192.214 239.117C192.214 238.89 192.328 238.776 192.555 238.776H202.102C202.33 238.776 202.443 238.89 202.443 239.117L202.529 297.68C202.529 297.964 202.415 298.106 202.188 298.106H192.555ZM210.794 298.106C210.339 298.106 210.112 297.907 210.112 297.509L210.027 239.458C210.027 239.003 210.254 238.776 210.709 238.776H218.381L232.787 272.362L232.361 239.458C232.361 239.003 232.616 238.776 233.128 238.776H241.567C241.908 238.776 242.079 239.003 242.079 239.458L242.164 297.595C242.164 297.936 242.022 298.106 241.738 298.106H234.236L219.489 266.736L220.086 297.424C220.086 297.879 219.83 298.106 219.318 298.106H210.794ZM249.91 298.106C249.682 298.106 249.569 297.964 249.569 297.68L249.739 239.202C249.739 238.918 249.853 238.776 250.08 238.776H259.628C259.855 238.776 259.968 238.918 259.968 239.202V259.405L273.352 239.117C273.522 238.89 273.721 238.776 273.949 238.776H283.752C283.979 238.776 284.036 238.89 283.922 239.117L269.175 262.645L285.712 297.765C285.826 297.992 285.684 298.106 285.286 298.106H274.886C274.602 298.106 274.432 297.992 274.375 297.765L262.867 272.703L259.883 277.392V297.68C259.883 297.964 259.77 298.106 259.542 298.106H249.91Z" fill="url(#paint1_linear_442_15436)"/>
<defs>
<linearGradient id="paint0_linear_442_15436" x1="203.008" y1="182.144" x2="210.797" y2="9.11721" gradientUnits="userSpaceOnUse">
<stop stop-color="#2D99FC"/>
<stop offset="1" stop-color="#8E72FF"/>
</linearGradient>
<linearGradient id="paint1_linear_442_15436" x1="301.016" y1="252.55" x2="150.055" y2="328.55" gradientUnits="userSpaceOnUse">
<stop stop-color="#2D99FC"/>
<stop offset="1" stop-color="#8776FF"/>
</linearGradient>
</defs>
</svg>
